<?xml version="1.0" encoding="UTF-8" standalone="no"?><!DOCTYPE svg PUBLIC "-//W3C//DTD SVG 1.1//EN" "http://www.w3.org/Graphics/SVG/1.1/DTD/svg11.dtd"><svg width="100%" height="100%" viewBox="0 0 2084 2084" version="1.1" xmlns="http://www.w3.org/2000/svg" xmlns:xlink="http://www.w3.org/1999/xlink" xml:space="preserve" xmlns:serif="http://www.serif.com/" style="fill-rule:evenodd;clip-rule:evenodd;stroke-linejoin:round;stroke-miterlimit:2;"><g id="Layer-3" serif:id="Layer 3"><path d="M341.513,1932.11c-0.054,-150.434 -0.108,-300.871 -0.162,-451.304c143.458,3.854 339.796,24.25 560.067,94.92c307.216,98.567 524.075,251.009 651.187,356.384" style="fill:#f6f6f6;fill-rule:nonzero;"/><path d="M1742.03,1930.69c0.225,-157.77 0.454,-315.541 0.679,-473.312c-75.096,9.329 -156.058,22.808 -241.617,42.046c-155.508,34.962 -290.762,80.971 -404.033,127.671c87.208,35.316 190.45,85.641 298.35,157.854c72.75,48.687 134.233,98.371 185.35,144.696c53.758,0.35 107.512,0.695 161.271,1.045" style="fill:#f6f6f6;fill-rule:nonzero;"/><path d="M783.548,1520.88c-0.767,-4.716 0.4,-8.383 0.637,-9.091c2.688,-8.075 10.555,-11.721 11.463,-12.125c8.308,-3.7 10.737,1.954 26.429,1.212c16.838,-0.796 27.067,-3.333 27.067,-3.333c1.325,-0.329 4.2,-1.079 7.641,-0.304c3.955,0.891 7.846,3.608 9.871,7.275c1.992,3.612 0.646,5.375 0,17.275c-0.516,9.504 0.242,10.162 -0.954,13.941c-0.717,2.25 -3.054,9.625 -8.917,12.429c-4.979,2.375 -8.8,-0.308 -21.333,-3.941c-4.512,-1.309 -23.817,-6.7 -38.212,-9.7c-2.225,-0.463 -6.663,-1.354 -9.871,-4.85c-2.904,-3.163 -3.542,-7.084 -3.821,-8.788" style="fill:#f6f6f6;fill-rule:nonzero;"/><path d="M904.23,1462.99c-9.463,6.583 -41.225,26.937 -86.613,25.458c-49.437,-1.613 -81.383,-28.042 -89.475,-35.159c-3.267,-1.712 -8.212,-3.737 -14.329,-3.937c-6.842,-0.229 -11.6,1.946 -16.558,3.638c-0,-0 -10.938,3.725 -27.7,4.545c-20.746,1.013 -48.196,-10.8 -57,-29.4c-2.78,-5.875 -3.663,-12.354 -10.509,-22.125c-5.241,-7.491 -10.025,-11.262 -11.141,-12.125c-8.309,-6.404 -15.746,-7.495 -21.017,-9.395c-21.608,-7.788 -29.696,-37.421 -32.796,-48.796c-2.95,-10.8 -7.554,-27.684 -0.458,-45.342c5.791,-14.417 13.929,-15.792 15.112,-27.033c1.525,-14.479 -11.346,-18.217 -19.696,-37.929c-9.187,-21.705 -9.591,-54.967 7.33,-71.938c5.591,-5.608 12.4,-8.767 20.612,-20.058c4.779,-6.567 8.688,-11.938 9.621,-19.184c1.708,-13.266 -8.483,-17.85 -13.283,-34.008c-6.284,-21.142 3.208,-40.087 4.579,-42.725c0.741,-1.429 14.925,-27.9 36.187,-28.775c7.25,-0.3 8.696,2.65 18.321,2.179c2.092,-0.104 15.883,-0.941 26.567,-9.591c8.616,-6.975 8.358,-13.475 15.575,-29.213c4.55,-9.921 10.825,-23.6 22.446,-35.317c15.4,-15.52 34.07,-21.429 44.887,-24.85c8.5,-2.687 19.504,-6.075 34.354,-6.104c5.659,-0.012 32.371,-0.066 55.425,14.825c4.721,3.046 6.479,4.909 10.996,6.104c14.096,3.73 26.654,-6.529 36.642,-11.77c26.333,-13.821 62.396,-7.267 83.825,3.487c1.854,0.929 39.55,20.483 46.725,55.371c3.429,16.696 -1.829,28.65 8.7,41.417c6.062,7.354 11.454,7.808 23.362,17.004c12.029,9.287 19.9,19.146 24.734,26.158c7.395,12.217 8.312,21.829 7.787,28.342c-0.929,11.512 -6.421,14.075 -10.075,30.521c-1.575,7.066 -3.742,16.829 -1.375,28.337c2.708,13.167 8.642,15.433 12.825,28.775c2.725,8.683 5.442,18.713 1.833,29.65c-5.35,16.213 -16.033,27.9 -16.033,27.9c-1.787,1.958 -4.608,4.804 -4.579,8.721c0.037,6.071 6.883,10.512 8.7,11.771c10.937,7.571 17.333,22.583 27.029,45.346c15.9,37.337 -4.367,81.595 -7.329,88.07c-4.829,10.546 -22.942,50.096 -63.213,65.396c-17.129,6.509 -36.233,7.854 -73.291,10.467c-11.638,0.821 -21.259,1.146 -27.704,1.292" style="fill:#f6f6f6;fill-rule:nonzero;"/><path d="M882.193,1504.82c0.837,-5.621 3.17,-14.654 10.72,-21.258c5.209,-4.559 12.263,-7.405 38.421,-8.93c25.646,-1.5 27.496,0.73 41.992,-0.854c9.037,-0.987 26.971,-3.108 45.117,-13.179c24.466,-13.579 41.162,-37.075 41.991,-38.271c4.409,-6.316 8.288,-13.229 17.425,-19.133c8.346,-5.392 17.017,-7.317 23.229,-8.079c86.367,-0.142 172.734,-0.284 259.1,-0.425c1.155,-0.209 13.509,-2.238 22.784,6.379c7.825,7.271 7.65,16.729 7.595,18.283c0.146,19.559 0.296,39.121 0.446,58.679c-0.15,3.375 -1.129,15.9 -11.616,26.788c-10.009,10.392 -22.284,12.646 -25.909,13.183c-37.575,10.25 -77.341,22.442 -118.829,36.992c-48.116,16.875 -92.379,34.762 -132.679,52.725c-6.621,3.512 -17.375,8.004 -30.821,8.079c-11.466,0.063 -19.908,-3.104 -29.487,-6.804c-35.709,-13.792 -39.746,-16.217 -51.371,-20.408c-22.183,-8 -28.25,-6.659 -69.692,-19.988c-10.362,-3.333 -20.15,-6.687 -28.141,-15.729c-8.117,-9.188 -10.421,-19.767 -11.167,-26.363" style="fill:#f6f6f6;fill-rule:nonzero;"/><path d="M407.86,1428.41c-0.829,-4.792 -1.942,-11.792 1.696,-19.367c3.454,-7.2 9.4,-11.175 12.433,-12.908c26.779,0.254 48.467,-0.229 63.529,-0.729c14.988,-0.496 28.38,-0.267 55.159,0.187c20.054,0.342 26.596,0.763 33.908,4.842c13.258,7.4 12.017,17.342 23.737,33.354c13.742,18.767 36.48,33.842 59.346,37.658c19.825,3.309 24.38,-4.412 45.213,-3.766c16.071,0.5 39.717,5.912 68.387,30.662c0.63,1.638 2.638,7.471 0,13.988c0,-0 -2.608,6.446 -9.608,10.221c-9.379,5.058 -23.279,2.412 -35.042,-6.455c-54.358,-7.225 -97.12,-14.77 -126.6,-20.441c-55.258,-10.634 -59.395,-13.829 -80.254,-13.45c-13.371,0.241 -37.283,2.016 -67.821,-5.917c-6.733,-1.75 -12.183,-3.554 -15.825,-4.842c-5.983,-5.008 -24.533,-21.525 -28.258,-43.037" style="fill:#f6f6f6;fill-rule:nonzero;"/><path d="M341.329,1394.85c0.012,24.392 0.025,48.783 0.037,73.175c13.192,0.038 26.388,0.075 39.579,0.117c1.33,-0.146 7.359,-0.946 11.734,-6.004c3.358,-3.884 3.858,-8.092 3.958,-9.634c0.196,-14.379 0.392,-28.758 0.588,-43.137c-0.305,-1.742 -1.109,-4.854 -3.521,-7.954c-3.721,-4.788 -8.804,-6.375 -10.559,-6.842c-13.937,0.092 -27.879,0.187 -41.816,0.279" style="fill:#f6f6f6;fill-rule:nonzero;"/><path d="M1742.77,1301.61c-133.812,-0.084 -267.625,-0.167 -401.437,-0.246c-1.492,0.291 -4.171,1.041 -6.483,3.162c-5.5,5.059 -3.505,12.946 -3.325,13.613c1.204,4.446 4.262,7.15 5.654,8.229l76.987,1.267c1.896,0.554 4.613,1.645 6.817,3.958c3.187,3.341 3.058,6.883 4.321,14.716c1.816,11.246 3.075,10.063 3.491,16.934c0.334,5.45 0.638,10.437 -1.662,16.146c-1.95,4.841 -5.117,8.566 -9.808,14.087c-4.055,4.767 -5.55,5.625 -6.817,8.863c-1.642,4.191 -0.942,7.379 -0.667,11.866c0.446,7.296 -0.733,10.059 -1.662,18.68c-0.829,7.695 -1.775,22.912 -2.329,55.708c-0.017,2.596 0.425,6.366 3.162,8.862c4.071,3.713 11.008,2.579 13.967,2.059c66.637,-11.742 127.995,-27.655 127.995,-27.655c11.921,-3.091 6.238,-0.895 80.959,-11.008c47.554,-6.433 85.983,-12.212 110.829,-16.054" style="fill:#f6f6f6;fill-rule:nonzero;"/><path d="M371.237,1379.9c57.129,-0.396 114.254,-0.792 171.383,-1.184c-6.625,-12.45 -10.737,-23.541 -13.35,-32c-2.821,-9.133 -5.683,-18.629 -6.346,-31.52c-0.496,-9.655 0.425,-17.755 1.421,-23.525c1.479,-4.963 4.496,-11.913 11,-17.717c1.096,-0.983 2.208,-1.854 3.308,-2.629c0.63,-4.171 0.863,-10.275 -1.654,-16.813c-1.85,-4.808 -4.754,-8.262 -10.487,-14.971c-2.946,-3.45 -7.175,-8.129 -12.696,-13.395c-0.496,0.033 -0.992,0.07 -1.492,0.108c-32.642,-0.133 -65.287,-0.263 -97.929,-0.396c-6.758,4.063 -10.417,8.438 -12.45,11.454c-7.188,10.654 -4.004,19.025 -11.204,35.154c-3.075,6.888 -3.55,5.125 -6.642,11.85c-9.592,20.884 -0.558,28.192 -9.129,47.396c-3.85,8.634 -7.688,11.654 -7.467,18.959c0.113,3.87 1.359,8.675 -1.662,13.033c-1.259,1.821 -2.571,2.567 -3.317,4.742c-1.096,3.191 0.067,6.429 1.242,8.687" style="fill:#f6f6f6;fill-rule:nonzero;"/><path d="M1057.31,1248.25c-0.154,19.704 21.221,28.967 32.217,47.996c7.375,12.767 12.566,34.233 -1.4,71.325c-0.058,0.85 -0.313,6.35 4.2,10.667c4.816,4.608 11.096,4.083 11.908,4l295.542,0.666c1.658,-1.696 3.908,-4.158 6.304,-7.333c4.6,-6.096 7.75,-10.271 8.404,-15.329c1.088,-8.442 -5.254,-15.529 -7.704,-18c-29.179,-0.221 -58.362,-0.446 -87.542,-0.667c-1.166,-9.775 -2.333,-19.554 -3.504,-29.329c-0.867,-2.167 -2.483,-5.154 -5.6,-7.333c-4.308,-3.013 -9.175,-2.888 -14.708,-2.667c-23.771,0.937 -29.2,2.104 -34.317,-1.333c-1.875,-1.259 -4.508,-3.671 -6.304,-8.667c2.571,-2.888 5.138,-5.775 7.704,-8.667c9.6,-57.987 22.163,-91.341 32.217,-111.321c1.016,-2.02 9.333,-18.462 14.008,-41.333c0.833,-4.087 4.583,-23.417 -0.704,-45.996c-1.983,-8.479 -4.042,-12.275 -7,-15.329c-6.671,-6.875 -15.992,-7.987 -28.717,-9.333c-7.741,-0.821 -19.104,-1.313 -32.916,0.666c-0.467,51.109 -0.934,102.213 -1.4,153.321c-0.013,0.488 -0.296,7.163 -6.304,10.663c-4.746,2.771 -9.655,1.558 -10.505,1.333l-154.775,0c-3.85,4.646 -9.029,12.379 -9.104,22" style="fill:#f6f6f6;fill-rule:nonzero;"/><path d="M1742.85,1103.5l-390.691,1.433c-2.384,-0.242 -11.055,-0.838 -18.909,4.667c-4.2,2.937 -6.521,6.47 -7.704,8.662c-14.708,48.442 -29.417,96.883 -44.125,145.321c-4.375,5.308 -4.625,12.667 -0.7,18c3.542,4.808 9.888,7.175 16.108,6c148.65,-0.092 297.296,-0.183 445.946,-0.275l0.075,-183.808Z" style="fill:#f6f6f6;fill-rule:nonzero;"/><path d="M1742.77,238.408c-366.459,0 -732.921,-0.004 -1099.38,-0.004c8.525,37.888 12.65,68.713 14.846,89.892c2.637,25.446 2.725,39.292 7.258,68.783c4.075,26.513 7.25,36.421 11.675,58.871c6.871,34.854 5.096,40.775 12.308,103.025c2.579,22.263 2.513,18.963 15.779,115.938c4.755,34.775 8.584,63.108 11.042,81.4c1.858,3.433 5.371,9.312 10.729,15.016c3.621,3.854 7.183,6.667 8.075,7.363c1.529,1.191 2.879,2.15 3.917,2.85c0.121,0.637 0.591,3.196 0.712,3.837c4.613,24.938 4.904,25.992 5.284,28.604c1.537,10.534 0.479,18.6 -0.946,29.434c-1.909,14.546 -4.996,21.412 -2.525,33.641c1.112,5.492 1.666,8.242 3.471,10.513c8.612,10.833 25.333,-0.163 47.333,10.212c6.442,3.038 11.2,6.896 22.092,9.913c2.85,0.787 7.758,2.146 13.254,2.4c13.146,0.612 22.45,-5.417 29.979,-9.008c15.942,-7.613 31.092,-7.717 45.125,-7.813c31.225,-0.208 54.933,16.525 62.163,21.629c38.799,27.384 46.22,69.225 47.649,78.692c0.725,3.692 2.271,8.937 5.996,14.117c5.734,7.975 13.463,11.395 17.042,13.216c20.529,10.45 31.221,32.713 32.821,36.046c10.367,21.596 2.583,45.2 -2.213,56.467c-1.85,4.604 -4.129,11.846 -4.1,20.725c0.05,14.712 6.409,23.362 10.73,35.441c3.379,9.455 6.529,23.859 3.787,43.855c44.775,-0.338 89.546,-0.675 134.321,-1.013c1.625,-0.487 5.108,-1.767 8.137,-4.967c3.659,-3.866 4.4,-8.158 4.592,-9.729c0.079,-45.196 0.163,-90.387 0.246,-135.583c-0.159,-0.3 -3.184,-6.383 0.633,-12.021c2.675,-3.958 7.621,-6.079 12.629,-5.408c21.259,-0.404 42.517,-0.804 63.78,-1.204c2.287,0.304 12.125,1.862 18.945,10.22c4.225,5.175 5.334,10.559 5.684,13.221c0.208,6.613 0.42,13.225 0.629,19.838c0.633,1.471 2.154,4.404 5.454,6.646c6.133,4.162 13.204,2.391 14.238,2.116c132.291,-0.271 264.583,-0.546 396.875,-0.816" style="fill:#f6f6f6;fill-rule:nonzero;"/><path d="M341.366,1368.58c12.779,-20.196 19.229,-37.579 22.729,-49.388c5.225,-17.62 16.967,-66.92 18.908,-75.087c2.93,-12.329 4.684,-19.858 11.734,-24.2c10.629,-6.546 21.662,1.312 40.421,-6.204c3.208,-1.288 9.57,-3.904 14.995,-9.309c12.096,-12.054 11.459,-29.925 11.417,-36.675c-0.033,-5.425 11.629,-48.666 34.963,-135.15c6.366,-23.608 8.604,-30.554 7.845,-42.783c-1.37,-22.087 -10.77,-33.271 -3.566,-46.862c5.021,-9.471 11.491,-7.638 19.979,-18.338c9.108,-11.479 9.833,-23.904 10.7,-43.462c1.254,-28.263 -4.15,-34.059 -2.85,-58.409c0.512,-9.646 2.725,-19.691 7.133,-39.391c8.483,-37.921 14.808,-55.934 25.688,-97.796c2.891,-11.138 6.925,-26.659 10.7,-43.463c5.575,-24.808 11.508,-56.487 17.837,-114.775c9.813,-90.35 2.929,-82.079 11.417,-129.716c5.821,-32.675 11.008,-47.496 18.554,-94.4c4.413,-27.459 7.087,-50.05 8.65,-64.8c-95.75,0.004 -191.5,0.008 -287.25,0.012" style="fill:#f6f6f6;fill-rule:nonzero;"/><path d="M468.761,1210.81c14.629,-0.237 29.254,-0.475 43.883,-0.712c0.246,-12.104 0.496,-24.204 0.746,-36.308c0.3,-2.634 0.979,-6.713 2.742,-11.392c4.991,-13.242 12.929,-16.096 20.196,-27.054c1.516,-2.284 10.254,-15.846 9.225,-32.513c-0.634,-10.35 -4.467,-12.646 -6.48,-28.954c-0.85,-6.854 -1.504,-12.179 -0.75,-18.746c2.605,-22.612 19.363,-37.216 21.942,-39.396c4.879,-4.133 15.192,-12.858 29.921,-14.712c7.683,-0.971 12.721,0.421 21.192,-2.85c1.929,-0.746 8.754,-3.55 14.958,-9.967c8.504,-8.796 5.5,-13.662 13.962,-24.683c5.542,-7.213 7.334,-5.775 15.209,-15.188c7.179,-8.57 6.946,-11.262 11.721,-16.85c8.7,-10.179 16.433,-9.391 28.42,-16.85c18.988,-11.808 26.563,-30.558 27.925,-33.933c3.325,-8.225 0.209,-5.575 3.742,-45.329c0.963,-10.821 2.229,-22.7 -1.246,-37.021c-2.221,-9.142 -4.854,-13.017 -6.804,-15.325c-5.129,-6.079 -9.767,-6.371 -15.379,-12.429c-3.779,-4.083 -5.767,-8.371 -8.125,-15.467c-7.779,-23.408 -8.413,-38.671 -8.413,-38.671c-1.562,-37.42 -7.916,-74.529 -11.029,-111.862c-7.341,-88.142 -13.366,-82.038 -10.446,-109.933c1.359,-12.95 4.813,-34.871 -1.162,-62.696c-1.438,-6.696 -1.917,-6.721 -7.542,-29.279c-3.704,-14.842 -7.016,-28.113 -10.45,-44.746c-2.116,-10.267 -4.746,-24.071 -7.254,-40.604c-4.392,6.062 -10.408,15.395 -15.379,27.62c-9.654,23.746 -9.521,44.038 -9.575,52.759c-0.213,33.375 -7.129,66.416 -9.575,99.708c-5.054,68.738 -7.579,103.104 -12.188,123.467c-7.433,32.821 -22.987,84.404 -22.054,116.558c0.071,2.5 0.409,10.546 -0.871,21.267c-1.966,16.483 -6.312,27.212 -9.866,37.566c-0,0 -9.542,27.767 -13.642,57.45c-1.621,11.742 -3.012,29.2 -0.871,51.096c0.446,4.229 2.042,21.179 -1.737,31.488c-1.263,3.446 -2.642,4.825 -3.484,5.525c-3.658,3.041 -7.545,1.791 -13.058,3.866c-2.258,0.855 -5.437,2.509 -8.704,6.08c1.983,11.908 3.762,29.116 2.029,49.716c-2.154,25.617 -8.725,44.475 -13.637,58.279c-4.667,13.109 -11.942,30.421 -23.413,49.692c-0.221,0.379 -0.783,1.921 -0.842,2.317c-4.612,33.004 -9.225,66.012 -13.837,99.016" style="fill:#f6f6f6;fill-rule:nonzero;"/></g></svg>