<?xml version="1.0" encoding="UTF-8" standalone="no"?><!DOCTYPE svg PUBLIC "-//W3C//DTD SVG 1.1//EN" "http://www.w3.org/Graphics/SVG/1.1/DTD/svg11.dtd"><svg width="100%" height="100%" viewBox="0 0 2084 2084" version="1.1" xmlns="http://www.w3.org/2000/svg" xmlns:xlink="http://www.w3.org/1999/xlink" xml:space="preserve" xmlns:serif="http://www.serif.com/" style="fill-rule:evenodd;clip-rule:evenodd;stroke-linejoin:round;stroke-miterlimit:2;"><g id="Layer-4" serif:id="Layer 4"><path d="M341.513,1932.11l-0.162,-474.146c143.458,4.054 339.796,25.483 560.067,99.729c307.216,103.554 524.075,263.708 651.187,374.417" style="fill:#1c2445;fill-rule:nonzero;"/><path d="M783.548,1500.07c-0.767,-4.954 0.4,-8.808 0.637,-9.554c2.688,-8.479 10.555,-12.313 11.463,-12.733c8.308,-3.892 10.737,2.05 26.429,1.27c16.838,-0.833 27.067,-3.5 27.067,-3.5c1.325,-0.345 4.2,-1.133 7.641,-0.32c3.955,0.937 7.846,3.791 9.871,7.641c1.992,3.796 0.646,5.646 0,18.15c-0.516,9.984 0.242,10.679 -0.954,14.65c-0.717,2.363 -3.054,10.113 -8.917,13.054c-4.979,2.496 -8.8,-0.321 -21.333,-4.141c-4.512,-1.371 -23.817,-7.038 -38.212,-10.188c-2.225,-0.487 -6.663,-1.425 -9.871,-5.096c-2.904,-3.321 -3.542,-7.446 -3.821,-9.233" style="fill:#184081;fill-rule:nonzero;"/><path d="M904.23,1439.25c-9.463,6.913 -41.225,28.304 -86.613,26.746c-49.437,-1.692 -81.383,-29.458 -89.475,-36.933c-3.267,-1.804 -8.212,-3.929 -14.329,-4.142c-6.842,-0.237 -11.6,2.046 -16.558,3.821c-0,-0 -10.938,3.917 -27.7,4.775c-20.746,1.067 -48.196,-11.346 -57,-30.883c-2.78,-6.175 -3.663,-12.98 -10.509,-23.246c-5.241,-7.871 -10.025,-11.834 -11.141,-12.738c-8.309,-6.729 -15.746,-7.875 -21.017,-9.871c-21.608,-8.183 -29.696,-39.316 -32.796,-51.266c-2.95,-11.346 -7.554,-29.084 -0.458,-47.638c5.791,-15.146 13.929,-16.587 15.112,-28.4c1.525,-15.212 -11.346,-19.137 -19.696,-39.85c-9.187,-22.8 -9.591,-57.746 7.33,-75.579c5.591,-5.892 12.4,-9.208 20.612,-21.071c4.779,-6.9 8.688,-12.541 9.621,-20.154c1.708,-13.937 -8.483,-18.754 -13.283,-35.729c-6.284,-22.213 3.208,-42.117 4.579,-44.888c0.741,-1.504 14.925,-29.312 36.187,-30.233c7.25,-0.312 8.696,2.783 18.321,2.292c2.092,-0.109 15.883,-0.992 26.567,-10.079c8.616,-7.325 8.358,-14.155 15.575,-30.688c4.55,-10.425 10.825,-24.796 22.446,-37.104c15.4,-16.308 34.07,-22.513 44.887,-26.108c8.5,-2.825 19.504,-6.384 34.354,-6.413c5.659,-0.012 32.371,-0.071 55.425,15.571c4.721,3.204 6.479,5.158 10.996,6.412c14.096,3.921 26.654,-6.858 36.642,-12.366c26.333,-14.521 62.396,-7.634 83.825,3.666c1.854,0.975 39.55,21.521 46.725,58.171c3.429,17.546 -1.829,30.104 8.7,43.517c6.062,7.725 11.454,8.204 23.362,17.862c12.029,9.759 19.9,20.117 24.734,27.484c7.395,12.837 8.312,22.933 7.787,29.775c-0.929,12.096 -6.421,14.787 -10.075,32.062c-1.575,7.429 -3.742,17.684 -1.375,29.775c2.708,13.834 8.642,16.217 12.825,30.234c2.725,9.12 5.442,19.658 1.833,31.145c-5.35,17.034 -16.033,29.317 -16.033,29.317c-1.787,2.054 -4.608,5.046 -4.579,9.163c0.037,6.379 6.883,11.041 8.7,12.366c10.937,7.95 17.333,23.725 27.029,47.638c15.9,39.225 -4.367,85.725 -7.329,92.529c-4.829,11.079 -22.942,52.633 -63.213,68.708c-17.129,6.834 -36.233,8.25 -73.291,10.992c-11.638,0.862 -21.259,1.204 -27.704,1.358" style="fill:#184081;fill-rule:nonzero;"/><path d="M882.193,1483.19c0.837,-5.904 3.17,-15.396 10.72,-22.338c5.209,-4.783 12.263,-7.775 38.421,-9.379c25.646,-1.575 27.496,0.771 41.992,-0.896c9.037,-1.037 26.971,-3.266 45.117,-13.846c24.466,-14.266 41.162,-38.954 41.991,-40.204c4.409,-6.641 8.288,-13.904 17.425,-20.104c8.346,-5.667 17.017,-7.687 23.229,-8.487c86.367,-0.15 172.734,-0.3 259.1,-0.446c1.155,-0.221 13.509,-2.35 22.784,6.7c7.825,7.637 7.65,17.575 7.595,19.208c0.146,20.55 0.296,41.1 0.446,61.65c-0.15,3.546 -1.129,16.704 -11.616,28.142c-10.009,10.916 -22.284,13.283 -25.909,13.85c-37.575,10.771 -77.341,23.575 -118.829,38.862c-48.116,17.729 -92.379,36.521 -132.679,55.396c-6.621,3.692 -17.375,8.408 -30.821,8.488c-11.466,0.066 -19.908,-3.263 -29.487,-7.15c-35.709,-14.488 -39.746,-17.038 -51.371,-21.442c-22.183,-8.404 -28.25,-6.992 -69.692,-20.996c-10.362,-3.5 -20.15,-7.025 -28.141,-16.529c-8.117,-9.654 -10.421,-20.767 -11.167,-27.696" style="fill:#187ebb;fill-rule:nonzero;"/><path d="M407.86,1402.92c-0.829,-5.038 -1.942,-12.388 1.696,-20.346c3.454,-7.567 9.4,-11.742 12.433,-13.567c26.779,0.271 48.467,-0.233 63.529,-0.758c14.988,-0.525 28.38,-0.284 55.159,0.196c20.054,0.358 26.596,0.796 33.908,5.087c13.258,7.771 12.017,18.217 23.737,35.038c13.742,19.721 36.48,35.554 59.346,39.562c19.825,3.475 24.38,-4.633 45.213,-3.954c16.071,0.525 39.717,6.213 68.387,32.213c0.63,1.72 2.638,7.854 0,14.695c0,0 -2.608,6.771 -9.608,10.738c-9.379,5.317 -23.279,2.537 -35.042,-6.779c-54.358,-7.592 -97.12,-15.517 -126.6,-21.479c-55.258,-11.171 -59.395,-14.525 -80.254,-14.13c-13.371,0.255 -37.283,2.121 -67.821,-6.216c-6.733,-1.838 -12.183,-3.734 -15.825,-5.088c-5.983,-5.258 -24.533,-22.608 -28.258,-45.212" style="fill:#187ebb;fill-rule:nonzero;"/><path d="M341.329,1367.66c0.012,25.624 0.025,51.254 0.037,76.879c13.192,0.041 26.388,0.079 39.579,0.12c1.33,-0.154 7.359,-0.991 11.734,-6.308c3.358,-4.079 3.858,-8.5 3.958,-10.121c0.196,-15.104 0.392,-30.212 0.588,-45.316c-0.305,-1.834 -1.109,-5.104 -3.521,-8.363c-3.721,-5.025 -8.804,-6.696 -10.559,-7.183c-13.937,0.096 -27.879,0.196 -41.816,0.292" style="fill:#187ebb;fill-rule:nonzero;"/><path d="M1742.77,1269.7l-401.437,-0.259c-1.492,0.309 -4.171,1.092 -6.483,3.325c-5.5,5.313 -3.505,13.6 -3.325,14.3c1.204,4.671 4.262,7.509 5.654,8.646l76.987,1.329c1.896,0.584 4.613,1.729 6.817,4.159c3.187,3.512 3.058,7.233 4.321,15.462c1.816,11.817 3.075,10.571 3.491,17.792c0.334,5.725 0.638,10.962 -1.662,16.962c-1.95,5.084 -5.117,8.996 -9.808,14.796c-4.055,5.008 -5.55,5.913 -6.817,9.313c-1.642,4.408 -0.942,7.754 -0.667,12.47c0.446,7.663 -0.733,10.567 -1.662,19.621c-0.829,8.088 -1.775,24.075 -2.329,58.529c-0.017,2.725 0.425,6.692 3.162,9.313c4.071,3.9 11.008,2.708 13.967,2.162c66.637,-12.337 127.995,-29.054 127.995,-29.054c11.921,-3.25 6.238,-0.941 80.959,-11.566c47.554,-6.759 85.983,-12.83 110.829,-16.867" style="fill:#233162;fill-rule:nonzero;"/><path d="M371.237,1351.95c57.129,-0.417 114.254,-0.829 171.383,-1.246c-6.625,-13.079 -10.737,-24.729 -13.35,-33.617c-2.821,-9.595 -5.683,-19.57 -6.346,-33.116c-0.496,-10.142 0.425,-18.654 1.421,-24.717c1.479,-5.208 4.496,-12.512 11,-18.612c1.096,-1.034 2.208,-1.946 3.308,-2.759c0.63,-4.387 0.863,-10.8 -1.654,-17.666c-1.85,-5.05 -4.754,-8.68 -10.487,-15.73c-2.946,-3.62 -7.175,-8.541 -12.696,-14.075c-0.496,0.038 -0.992,0.075 -1.492,0.117c-32.642,-0.142 -65.287,-0.279 -97.929,-0.417c-6.758,4.271 -10.417,8.867 -12.45,12.034c-7.188,11.196 -4.004,19.991 -11.204,36.933c-3.075,7.233 -3.55,5.383 -6.642,12.45c-9.592,21.942 -0.558,29.621 -9.129,49.796c-3.85,9.071 -7.688,12.242 -7.467,19.917c0.113,4.066 1.359,9.116 -1.662,13.695c-1.259,1.913 -2.571,2.692 -3.317,4.98c-1.096,3.35 0.067,6.754 1.242,9.129" style="fill:#212518;fill-rule:nonzero;"/><path d="M1057.31,1213.64c-0.154,20.7 21.221,30.433 32.217,50.425c7.375,13.412 12.566,35.966 -1.4,74.937c-0.058,0.892 -0.313,6.667 4.2,11.204c4.816,4.842 11.096,4.288 11.908,4.205l295.542,0.7c1.658,-1.784 3.908,-4.371 6.304,-7.705c4.6,-6.408 7.75,-10.791 8.404,-16.108c1.088,-8.867 -5.254,-16.312 -7.704,-18.908c-29.179,-0.234 -58.362,-0.467 -87.542,-0.7c-1.166,-10.275 -2.333,-20.546 -3.504,-30.817c-0.867,-2.275 -2.483,-5.412 -5.6,-7.704c-4.308,-3.167 -9.175,-3.029 -14.708,-2.8c-23.771,0.983 -29.2,2.208 -34.317,-1.4c-1.875,-1.325 -4.508,-3.858 -6.304,-9.108c2.571,-3.034 5.138,-6.067 7.704,-9.105c9.6,-60.92 22.163,-95.962 32.217,-116.954c1.016,-2.121 9.333,-19.396 14.008,-43.421c0.833,-4.3 4.583,-24.608 -0.704,-48.325c-1.983,-8.908 -4.042,-12.9 -7,-16.108c-6.671,-7.225 -15.992,-8.392 -28.717,-9.804c-7.741,-0.863 -19.104,-1.379 -32.916,0.7c-0.467,53.692 -0.934,107.383 -1.4,161.079c-0.013,0.513 -0.296,7.525 -6.304,11.204c-4.746,2.909 -9.655,1.638 -10.505,1.4l-154.775,0c-3.85,4.879 -9.029,13.004 -9.104,23.113" style="fill:#212518;fill-rule:nonzero;"/><path d="M1742.85,1061.57l-390.691,1.505c-2.384,-0.255 -11.055,-0.88 -18.909,4.904c-4.2,3.087 -6.521,6.796 -7.704,9.104c-14.708,50.892 -29.417,101.783 -44.125,152.675c-4.375,5.575 -4.625,13.304 -0.7,18.908c3.542,5.05 9.888,7.538 16.108,6.304c148.65,-0.095 297.296,-0.191 445.946,-0.287l0.075,-193.113Z" style="fill:#212518;fill-rule:nonzero;"/><path d="M1742.77,152.694c-366.459,0 -732.921,-0.004 -1099.38,-0.004c8.525,39.804 12.65,72.192 14.846,94.442c2.637,26.733 2.725,41.279 7.258,72.262c4.075,27.854 7.25,38.263 11.675,61.85c6.871,36.617 5.096,42.842 12.308,108.238c2.579,23.391 2.513,19.921 15.779,121.808c4.755,36.533 8.584,66.304 11.042,85.517c1.858,3.608 5.371,9.787 10.729,15.779c3.621,4.046 7.183,7.004 8.075,7.733c1.529,1.254 2.879,2.259 3.917,2.996c0.121,0.671 0.591,3.354 0.712,4.033c4.613,26.196 4.904,27.305 5.284,30.046c1.537,11.067 0.479,19.546 -0.946,30.925c-1.909,15.284 -4.996,22.5 -2.525,35.346c1.112,5.771 1.666,8.658 3.471,11.042c8.612,11.383 25.333,-0.167 47.333,10.729c6.442,3.192 11.2,7.25 22.092,10.417c2.85,0.825 7.758,2.254 13.254,2.52c13.146,0.646 22.45,-5.687 29.979,-9.466c15.942,-7.996 31.092,-8.105 45.125,-8.204c31.225,-0.221 54.933,17.358 62.163,22.72c38.799,28.771 46.22,72.729 47.649,82.679c0.725,3.88 2.271,9.388 5.996,14.83c5.734,8.375 13.463,11.975 17.042,13.887c20.529,10.975 31.221,34.367 32.821,37.867c10.367,22.691 2.583,47.487 -2.213,59.325c-1.85,4.837 -4.129,12.446 -4.1,21.775c0.05,15.458 6.409,24.546 10.73,37.233c3.379,9.933 6.529,25.067 3.787,46.075c44.775,-0.354 89.546,-0.712 134.321,-1.067c1.625,-0.512 5.108,-1.854 8.137,-5.212c3.659,-4.063 4.4,-8.575 4.592,-10.225c0.079,-47.479 0.163,-94.963 0.246,-142.446c-0.159,-0.317 -3.184,-6.704 0.633,-12.629c2.675,-4.154 7.621,-6.383 12.629,-5.683c21.259,-0.421 42.517,-0.842 63.78,-1.263c2.287,0.321 12.125,1.958 18.945,10.738c4.225,5.437 5.334,11.095 5.684,13.891c0.208,6.946 0.42,13.892 0.629,20.838c0.633,1.55 2.154,4.629 5.454,6.983c6.133,4.375 13.204,2.513 14.238,2.225c132.291,-0.287 264.583,-0.571 396.875,-0.858" style="fill:#78cbe5;fill-rule:nonzero;"/><path d="M341.366,1340.06c12.779,-21.216 19.229,-39.483 22.729,-51.887c5.225,-18.513 16.967,-70.304 18.908,-78.884c2.93,-12.958 4.684,-20.866 11.734,-25.429c10.629,-6.875 21.662,1.379 40.421,-6.516c3.208,-1.35 9.57,-4.1 14.995,-9.78c12.096,-12.666 11.459,-31.441 11.417,-38.533c-0.033,-5.7 11.629,-51.129 34.963,-141.987c6.366,-24.805 8.604,-32.1 7.845,-44.95c-1.37,-23.205 -10.77,-34.955 -3.566,-49.234c5.021,-9.95 11.491,-8.025 19.979,-19.262c9.108,-12.067 9.833,-25.117 10.7,-45.667c1.254,-29.692 -4.15,-35.783 -2.85,-61.362c0.512,-10.134 2.725,-20.688 7.133,-41.384c8.483,-39.841 14.808,-58.762 25.688,-102.746c2.891,-11.704 6.925,-28.008 10.7,-45.662c5.575,-26.067 11.508,-59.346 17.837,-120.584c9.813,-94.92 2.929,-86.233 11.417,-136.283c5.821,-34.325 11.008,-49.896 18.554,-99.179c4.413,-28.842 7.087,-52.583 8.65,-68.075c-95.75,0.004 -191.5,0.008 -287.25,0.013" style="fill:#78cbe5;fill-rule:nonzero;"/><path d="M468.761,1174.31c14.629,-0.25 29.254,-0.5 43.883,-0.75c0.246,-12.713 0.496,-25.429 0.746,-38.146c0.3,-2.767 0.979,-7.05 2.742,-11.967c4.991,-13.912 12.929,-16.912 20.196,-28.425c1.516,-2.396 10.254,-16.65 9.225,-34.158c-0.634,-10.871 -4.467,-13.284 -6.48,-30.417c-0.85,-7.2 -1.504,-12.8 -0.75,-19.696c2.605,-23.758 19.363,-39.1 21.942,-41.391c4.879,-4.338 15.192,-13.509 29.921,-15.459c7.683,-1.016 12.721,0.446 21.192,-2.991c1.929,-0.78 8.754,-3.73 14.958,-10.471c8.504,-9.238 5.5,-14.354 13.962,-25.929c5.542,-7.58 7.334,-6.071 15.209,-15.959c7.179,-9.008 6.946,-11.833 11.721,-17.7c8.7,-10.696 16.433,-9.866 28.42,-17.704c18.988,-12.408 26.563,-32.104 27.925,-35.654c3.325,-8.638 0.209,-5.854 3.742,-47.621c0.963,-11.371 2.229,-23.85 -1.246,-38.896c-2.221,-9.604 -4.854,-13.671 -6.804,-16.1c-5.129,-6.387 -9.767,-6.691 -15.379,-13.058c-3.779,-4.288 -5.767,-8.792 -8.125,-16.25c-7.779,-24.592 -8.413,-40.625 -8.413,-40.625c-1.562,-39.317 -7.916,-78.304 -11.029,-117.525c-7.341,-92.604 -13.366,-86.192 -10.446,-115.496c1.359,-13.608 4.813,-36.637 -1.162,-65.871c-1.438,-7.033 -1.917,-7.062 -7.542,-30.758c-3.704,-15.596 -7.016,-29.538 -10.45,-47.013c-2.116,-10.783 -4.746,-25.287 -7.254,-42.658c-4.392,6.371 -10.408,16.175 -15.379,29.021c-9.654,24.946 -9.521,46.262 -9.575,55.425c-0.213,35.062 -7.129,69.779 -9.575,104.758c-5.054,72.213 -7.579,108.321 -12.188,129.713c-7.433,34.483 -22.987,88.675 -22.054,122.458c0.071,2.625 0.409,11.075 -0.871,22.342c-1.966,17.316 -6.312,28.587 -9.866,39.466c-0,0 -9.542,29.175 -13.642,60.359c-1.621,12.337 -3.012,30.675 -0.871,53.683c0.446,4.442 2.042,22.25 -1.737,33.083c-1.263,3.613 -2.642,5.067 -3.484,5.8c-3.658,3.196 -7.545,1.884 -13.058,4.063c-2.258,0.896 -5.437,2.633 -8.704,6.387c1.983,12.509 3.762,30.592 2.029,52.234c-2.154,26.912 -8.725,46.725 -13.637,61.229c-4.667,13.771 -11.942,31.958 -23.413,52.208c-0.221,0.392 -0.783,2.017 -0.842,2.434c-4.612,34.675 -9.225,69.35 -13.837,104.025" style="fill:#163c50;fill-rule:nonzero;"/><path d="M1742.03,1930.62c0.225,-165.754 0.454,-331.508 0.679,-497.262c-75.096,9.796 -156.058,23.958 -241.617,44.171c-155.508,36.729 -290.762,85.066 -404.033,134.133c87.208,37.1 190.45,89.971 298.35,165.842c72.75,51.15 134.233,103.345 185.35,152.02c53.758,0.363 107.512,0.73 161.271,1.096" style="fill:#23387a;fill-rule:nonzero;"/></g></svg>